HIERARCHY
ROOT Hips
{
	OFFSET 0.000000 0.000000 0.000000 
	CHANNELS 6 Xposition Yposition Zposition Zrotation Yrotation Xrotation
	JOINT LeftUpLeg
	{
		OFFSET 1.363060 -1.794630 0.839290 
		CHANNELS 3 Zrotation Yrotation Xrotation
		JOINT LeftLeg
		{
			OFFSET 2.448110 -6.726130 0.000000 
			CHANNELS 3 Zrotation Yrotation Xrotation
			JOINT LeftFoot
			{
				OFFSET 2.562200 -7.039590 0.000000 
				CHANNELS 3 Zrotation Yrotation Xrotation
				JOINT LeftToeBase
				{
					OFFSET 0.157640 -0.433110 2.322550 
					CHANNELS 3 Zrotation Yrotation Xrotation
					End Site
					{
						OFFSET 0.000000 0.000000 0.000000 
					}
				}
			}
		}
	}
	JOINT RightUpLeg
	{
		OFFSET -1.305520 -1.794630 0.839290 
		CHANNELS 3 Zrotation Yrotation Xrotation
		JOINT RightLeg
		{
			OFFSET -2.542530 -6.985550 0.000000 
			CHANNELS 3 Zrotation Yrotation Xrotation
			JOINT RightFoot
			{
				OFFSET -2.568260 -7.056230 0.000000 
				CHANNELS 3 Zrotation Yrotation Xrotation
				JOINT RightToeBase
				{
					OFFSET -0.164730 -0.452590 2.363150 
					CHANNELS 3 Zrotation Yrotation Xrotation
					End Site
					{
						OFFSET 0.000000 0.000000 0.000000 
					}
				}
			}
		}
	}
	JOINT Spine
	{
		OFFSET 0.028270 2.035590 -0.193380 
		CHANNELS 3 Zrotation Yrotation Xrotation
		JOINT Spine1
		{
			OFFSET 0.056720 2.048850 -0.042750 
			CHANNELS 3 Zrotation Yrotation Xrotation
			JOINT Neck1
			{
				OFFSET -0.054170 1.746240 0.172020 
				CHANNELS 3 Zrotation Yrotation Xrotation
				JOINT Head
				{
					OFFSET 0.104070 1.761360 -0.123970 
					CHANNELS 3 Zrotation Yrotation Xrotation
					End Site
					{
						OFFSET 0.000000 0.000000 0.000000 
					}
				}
			}
			JOINT LeftArm
			{
				OFFSET 3.362410 1.200890 -0.311210 
				CHANNELS 3 Zrotation Yrotation Xrotation
				JOINT LeftForeArm
				{
					OFFSET 4.983000 -0.000000 -0.000000 
					CHANNELS 3 Zrotation Yrotation Xrotation
					JOINT LeftHand
					{
						OFFSET 3.483560 -0.000000 -0.000000 
						CHANNELS 3 Zrotation Yrotation Xrotation
						JOINT LeftHandIndex1
						{
							OFFSET 0.715260 -0.000000 -0.000000 
							CHANNELS 3 Zrotation Yrotation Xrotation
							End Site
							{
								OFFSET 0.000000 0.000000 0.000000 
							}
						}
					}
				}
			}
			JOINT RightArm
			{
				OFFSET -3.136600 1.374050 -0.404650 
				CHANNELS 3 Zrotation Yrotation Xrotation
				JOINT RightForeArm
				{
					OFFSET -5.241900 -0.000000 -0.000000 
					CHANNELS 3 Zrotation Yrotation Xrotation
					JOINT RightHand
					{
						OFFSET -3.444170 -0.000000 -0.000000 
						CHANNELS 3 Zrotation Yrotation Xrotation
						JOINT RightHandIndex1
						{
							OFFSET -0.622530 -0.000000 -0.000000 
							CHANNELS 3 Zrotation Yrotation Xrotation
							End Site
							{
								OFFSET 0.000000 0.000000 0.000000 
							}
						}
					}
				}
			}
		}
	}
}
MOTION
Frames: 10
Frame Time: 0.041667
9.156769 12.816745 28.332636 -177.551748 3.090761 -151.883361 -17.169834 -4.026481 -86.997355 22.590411 24.438876 96.448583 5.435153 -25.134932 -26.660108 0.346000 -3.779700 -10.457700 22.344158 15.241050 -86.794102 -22.390652 -26.592778 99.457475 -3.507731 -3.518961 -33.133580 -0.034300 -1.195000 3.285600 1.806770 1.528730 24.247102 -3.282615 2.891904 -26.918189 14.159002 -1.478024 -14.684365 3.347600 -0.358400 -2.247800 -45.330606 -31.640098 16.764919 84.745935 -54.224226 -52.328081 -1.433689 0.472684 -41.214261 -7.125000 0.000000 0.000000 29.022283 28.404330 21.361294 -68.474385 53.562465 -38.442911 -0.222385 -0.570250 14.326142 7.125000 0.000000 0.000000 
9.166376 12.831214 28.300458 -177.510355 2.918897 -151.508521 -17.026541 -4.102216 -87.216461 22.559002 24.438998 96.346880 5.289027 -26.084128 -26.077354 0.137800 -2.392800 -6.592400 22.367640 15.320988 -86.917249 -22.308081 -26.619280 99.227575 -3.551928 -3.352136 -33.180471 -0.065500 -1.651800 4.544200 1.801693 1.575753 24.413702 -3.306260 2.918748 -26.751834 13.919081 -1.563644 -14.219623 3.456500 -0.373400 -2.346100 -46.373098 -30.301772 19.097022 81.596653 -54.005684 -49.516049 -1.354351 0.454015 -40.099625 -7.125000 0.000000 0.000000 29.421205 27.492776 22.489619 -66.510577 53.196333 -36.739904 -0.205809 -0.606819 13.112046 7.125000 0.000000 0.000000 
9.170775 12.852975 28.268396 -177.463793 2.740691 -151.119283 -16.954460 -4.176455 -87.407509 22.514000 24.453344 96.190060 5.267314 -26.468947 -26.003189 0.083000 -1.857800 -5.112800 22.359509 15.422794 -87.054264 -22.244472 -26.646942 99.046485 -3.601674 -3.239784 -33.300030 -0.092800 -1.964300 5.407100 2.064962 1.648202 24.424719 -3.350101 2.953294 -26.689711 13.848107 -1.669866 -13.930227 3.416800 -0.436800 -2.225000 -47.913270 -28.693208 21.518048 78.684087 -53.729886 -46.936933 -1.285653 0.448998 -39.222265 -7.125000 0.000000 0.000000 31.074176 26.212956 24.269161 -64.652446 52.772399 -35.127837 -0.198045 -0.630914 13.123768 7.125000 0.000000 0.000000 
9.173437 12.876935 28.232976 -177.466550 2.635157 -150.719296 -16.998729 -4.248387 -87.549610 22.453226 24.482236 95.990074 5.348813 -26.302895 -26.317594 0.113500 -2.171900 -5.981000 22.249602 15.533916 -87.198042 -22.170806 -26.678957 98.841222 -3.625719 -3.273260 -33.445825 -0.102200 -2.061000 5.674300 2.125440 1.703550 24.393233 -3.387073 2.968117 -26.661436 13.718207 -1.805842 -13.580349 3.323300 -0.514200 -2.074700 -49.430544 -26.850784 24.561732 73.625268 -53.138081 -42.467630 -1.156827 0.457861 -34.954477 -7.125000 0.000000 0.000000 32.287542 24.910785 25.925404 -62.639852 52.290914 -33.406130 -0.198059 -0.656054 13.322729 7.125000 0.000000 0.000000 
9.183391 12.901242 28.196979 -177.596979 2.533454 -150.239540 -17.118554 -4.380048 -87.766428 22.369145 24.518190 95.748254 5.387112 -26.250321 -26.457626 0.129900 -2.323600 -6.401000 21.997468 15.652233 -87.479042 -22.085440 -26.718204 98.597174 -3.637231 -3.271451 -33.507910 -0.125900 -2.287000 6.299400 2.242214 1.742816 24.453498 -3.325486 3.004194 -26.581120 13.565381 -1.856026 -13.318567 3.221100 -0.556300 -1.973400 -50.713875 -25.276170 26.690910 70.183358 -52.583555 -39.469312 -1.088155 0.459985 -33.069450 -7.125000 0.000000 0.000000 33.129617 23.599857 27.563586 -60.577529 51.743586 -31.671794 -0.192820 -0.685849 13.132737 7.125000 0.000000 0.000000 
9.196703 12.931800 28.160055 -177.663161 2.465651 -149.765031 -17.229629 -4.383849 -87.973236 22.267685 24.538238 95.464574 5.402064 -26.212761 -26.488805 0.165200 -2.618500 -7.218400 21.888116 15.809465 -87.689073 -21.955258 -26.766534 98.266477 -3.582458 -3.494982 -33.499194 -0.112900 -2.166300 5.965600 2.333344 1.793037 24.615199 -3.298074 3.040854 -26.493216 12.743988 -2.293626 -13.443964 3.091500 -3.165500 -2.043800 -51.757076 -23.870912 27.756266 69.039377 -52.342768 -38.487679 -1.091436 0.466154 -35.270239 -7.125000 0.000000 0.000000 33.629303 22.171787 29.262648 -58.774472 51.216932 -30.186609 -0.180356 -0.718826 12.253488 7.125000 0.000000 0.000000 
9.207236 12.960158 28.121395 -177.577271 2.437984 -149.259025 -17.205762 -4.370362 -88.271135 22.169911 24.565934 95.192873 5.428161 -25.973880 -26.569191 0.242200 -3.166800 -8.743600 21.957114 15.959513 -87.889725 -21.815433 -26.810066 97.924167 -3.530188 -3.735983 -33.519659 -0.080000 -1.824700 5.021500 1.300580 1.543845 25.126372 -3.303934 2.910772 -26.011454 12.889290 -2.026201 -13.392574 3.039900 -3.077200 -1.936300 -50.739691 -22.343511 27.842277 67.356139 -52.031953 -36.951207 -1.091484 0.463686 -36.943622 -7.125000 0.000000 0.000000 32.250776 21.421970 30.834865 -57.910233 50.945883 -29.515583 -0.161987 -0.758107 9.059656 7.125000 0.000000 0.000000 
9.216148 12.994535 28.079957 -177.484698 2.377628 -148.720742 -17.163211 -4.344406 -88.508258 22.061676 24.583836 94.870908 5.439932 -26.006369 -26.591225 0.249800 -3.216100 -8.881100 22.018274 16.103499 -88.077319 -21.671244 -26.853920 97.553872 -3.530251 -3.765177 -33.568630 -0.071600 -1.726000 4.749100 1.273984 1.640091 25.256667 -3.322191 2.942832 -25.862245 12.852847 -2.094295 -13.182549 2.973500 -3.087700 -1.842900 -51.706142 -20.763912 29.472872 64.765037 -51.425903 -34.747871 -1.048422 0.484378 -36.164938 -7.125000 0.000000 0.000000 32.462376 19.723639 32.933095 -56.732834 50.551537 -28.568870 -0.164460 -0.788458 7.694465 7.125000 0.000000 0.000000 
9.222978 13.034932 28.038982 -177.491204 2.406894 -148.218498 -17.234912 -4.324842 -88.649260 21.917708 24.593151 94.492396 5.310119 -26.555463 -26.027685 0.091400 -1.949400 -5.365900 21.957496 16.194950 -88.221514 -21.522298 -26.889324 97.158184 -3.529102 -3.673105 -33.499334 -0.088300 -1.917000 5.276300 0.936645 1.533278 25.335174 -3.344609 2.881620 -25.717919 13.050883 -2.103205 -12.981526 3.053700 -3.052900 -1.745300 -51.947046 -18.812623 30.902406 62.150165 -50.743495 -32.525224 -1.011836 0.488163 -35.615216 -7.125000 0.000000 0.000000 33.788540 18.699036 35.172215 -54.700290 49.792558 -26.934587 -0.173162 -0.809032 7.900711 7.125000 0.000000 0.000000 
9.227145 13.073592 27.997775 -177.537233 2.418167 -147.699141 -17.353745 -4.383499 -88.802068 21.792980 24.630692 94.113241 5.410396 -26.340488 -26.394370 0.187900 -2.791600 -7.699200 21.907113 16.161645 -88.402049 -21.369872 -26.914473 96.761058 -3.499745 -3.681634 -33.403488 -0.090700 -1.942100 5.345700 0.514809 1.371844 25.353918 -3.377987 2.784472 -25.605797 13.345012 -2.162735 -12.681692 3.177700 -3.025100 -1.602700 -52.365520 -16.621903 32.238781 60.102047 -50.122998 -30.803736 -0.981652 0.492043 -35.364692 -7.125000 0.000000 0.000000 35.219399 17.703567 37.342438 -52.590661 48.928709 -25.258601 -0.173326 -0.828089 8.586600 7.125000 0.000000 0.000000 
